# xmcd CD database file
#
# Track frame offsets:
#	150
#	17888
#	41139
#	57085
#	78656
#	93401
#	111776
#	130286
#	150386
#	167261
#
# Disc length: 2602 seconds
#
# Revision: 0
# Processed by: cddbd v1.5PL3 Copyright (c) Steve Scherf et al.
# Submitted via: CDex 1.50Beta7
#
DISCID=750a280a
DTITLE=ねぴあ軍団 - プレミアムCD Vol.7 Air in Dreams
DYEAR=1900
DGENRE=Game
TTITLE0=魔法のバンダナ
TTITLE1=flying beat
TTITLE2=ふたり summer mix
TTITLE3=のほほん
TTITLE4=とりぷる☆やっちゃう☆大行進
TTITLE5=Psycho Impact
TTITLE6=夏影 Orchestral
TTITLE7=今日も楽しいね
TTITLE8=回想録〜青空〜羽根
TTITLE9=Feather in dreams
EXTD=
EXTT0=
EXTT1=
EXTT2=
EXTT3=
EXTT4=
EXTT5=
EXTT6=
EXTT7=
EXTT8=
EXTT9=
PLAYORDER=
